<mxfile host="app.diagrams.net" modified="2024-07-02T16:26:44.623Z" agent="Mozilla/5.0 (Windows NT 10.0; Win64; x64) AppleWebKit/537.36 (KHTML, like Gecko) Chrome/126.0.0.0 Safari/537.36" etag="U8pMpttLSWrznGF08U3d" version="24.6.4" type="github">
  <diagram id="C5RBs43oDa-KdzZeNtuy" name="Page-1">
    <mxGraphModel dx="695" dy="867" grid="1" gridSize="10" guides="1" tooltips="1" connect="1" arrows="1" fold="1" page="1" pageScale="1" pageWidth="827" pageHeight="1169" math="0" shadow="0">
      <root>
        <mxCell id="WIyWlLk6GJQsqaUBKTNV-0" />
        <mxCell id="WIyWlLk6GJQsqaUBKTNV-1" parent="WIyWlLk6GJQsqaUBKTNV-0" />
        <mxCell id="3YOhsPJnXROdofjHF5Tx-2" value="Members" style="ellipse;whiteSpace=wrap;html=1;aspect=fixed;" parent="WIyWlLk6GJQsqaUBKTNV-1" vertex="1">
          <mxGeometry x="230.00000000000003" y="219.99999999999997" width="80" height="80" as="geometry" />
        </mxCell>
        <mxCell id="3YOhsPJnXROdofjHF5Tx-3" value="Book" style="ellipse;whiteSpace=wrap;html=1;aspect=fixed;" parent="WIyWlLk6GJQsqaUBKTNV-1" vertex="1">
          <mxGeometry x="400" y="320" width="80" height="80" as="geometry" />
        </mxCell>
        <mxCell id="3YOhsPJnXROdofjHF5Tx-4" value="Readinglist" style="ellipse;whiteSpace=wrap;html=1;aspect=fixed;" parent="WIyWlLk6GJQsqaUBKTNV-1" vertex="1">
          <mxGeometry x="280" y="440" width="80" height="80" as="geometry" />
        </mxCell>
        <mxCell id="3YOhsPJnXROdofjHF5Tx-10" value="Review" style="ellipse;whiteSpace=wrap;html=1;aspect=fixed;" parent="WIyWlLk6GJQsqaUBKTNV-1" vertex="1">
          <mxGeometry x="475" y="150" width="80" height="80" as="geometry" />
        </mxCell>
        <mxCell id="3YOhsPJnXROdofjHF5Tx-16" value="_id: ObjectId()&lt;br&gt;name: String&lt;br&gt;gender: String&lt;br&gt;age: int&lt;div&gt;book: array&amp;lt;BookId&amp;gt;&lt;br&gt;&lt;div&gt;review: array&amp;lt;ReviewId&amp;gt;&lt;/div&gt;&lt;/div&gt;" style="text;whiteSpace=wrap;html=1;" parent="WIyWlLk6GJQsqaUBKTNV-1" vertex="1">
          <mxGeometry x="90" y="200" width="140" height="100" as="geometry" />
        </mxCell>
        <mxCell id="3YOhsPJnXROdofjHF5Tx-17" value="_id: ObjectId()&lt;br&gt;bookcount: int&lt;br&gt;recentBook: array&amp;lt;BookId&amp;gt;" style="text;whiteSpace=wrap;html=1;" parent="WIyWlLk6GJQsqaUBKTNV-1" vertex="1">
          <mxGeometry x="365" y="460" width="150" height="70" as="geometry" />
        </mxCell>
        <mxCell id="3YOhsPJnXROdofjHF5Tx-18" value="title: String&lt;br&gt;_id: ObjectId()&lt;br&gt;author: String&lt;br&gt;pages: int&lt;br&gt;review: array&amp;lt;ReviewId&amp;gt;&lt;div&gt;&lt;br&gt;&lt;/div&gt;" style="text;whiteSpace=wrap;html=1;" parent="WIyWlLk6GJQsqaUBKTNV-1" vertex="1">
          <mxGeometry x="490" y="320" width="140" height="100" as="geometry" />
        </mxCell>
        <mxCell id="3YOhsPJnXROdofjHF5Tx-19" value="_id: ObjectId()&#xa;rating: int&#xa;positives: String&#xa;negatives: String" style="text;whiteSpace=wrap;html=1;" parent="WIyWlLk6GJQsqaUBKTNV-1" vertex="1">
          <mxGeometry x="380" y="110" width="120" height="80" as="geometry" />
        </mxCell>
        <mxCell id="WFWG5SUDszc5aF9-9dEm-0" value="" style="endArrow=classic;html=1;rounded=0;fontSize=12;startSize=8;endSize=8;curved=1;exitX=1;exitY=0.5;exitDx=0;exitDy=0;entryX=0;entryY=0.5;entryDx=0;entryDy=0;" edge="1" parent="WIyWlLk6GJQsqaUBKTNV-1" source="3YOhsPJnXROdofjHF5Tx-2" target="3YOhsPJnXROdofjHF5Tx-10">
          <mxGeometry width="50" height="50" relative="1" as="geometry">
            <mxPoint x="360" y="370" as="sourcePoint" />
            <mxPoint x="410" y="320" as="targetPoint" />
          </mxGeometry>
        </mxCell>
        <mxCell id="WFWG5SUDszc5aF9-9dEm-3" value="write" style="edgeLabel;html=1;align=center;verticalAlign=middle;resizable=0;points=[];fontSize=12;" vertex="1" connectable="0" parent="WFWG5SUDszc5aF9-9dEm-0">
          <mxGeometry x="-0.1091" y="-1" relative="1" as="geometry">
            <mxPoint as="offset" />
          </mxGeometry>
        </mxCell>
        <mxCell id="WFWG5SUDszc5aF9-9dEm-1" value="" style="endArrow=classic;html=1;rounded=0;fontSize=12;startSize=8;endSize=8;curved=1;entryX=0.375;entryY=1.025;entryDx=0;entryDy=0;entryPerimeter=0;" edge="1" parent="WIyWlLk6GJQsqaUBKTNV-1" source="3YOhsPJnXROdofjHF5Tx-3" target="3YOhsPJnXROdofjHF5Tx-10">
          <mxGeometry width="50" height="50" relative="1" as="geometry">
            <mxPoint x="510" y="360" as="sourcePoint" />
            <mxPoint x="560" y="310" as="targetPoint" />
          </mxGeometry>
        </mxCell>
        <mxCell id="WFWG5SUDszc5aF9-9dEm-2" value="has" style="edgeLabel;html=1;align=center;verticalAlign=middle;resizable=0;points=[];fontSize=12;" vertex="1" connectable="0" parent="WFWG5SUDszc5aF9-9dEm-1">
          <mxGeometry x="0.1538" y="-2" relative="1" as="geometry">
            <mxPoint as="offset" />
          </mxGeometry>
        </mxCell>
        <mxCell id="WFWG5SUDszc5aF9-9dEm-4" value="" style="endArrow=classic;html=1;rounded=0;fontSize=12;startSize=8;endSize=8;curved=1;exitX=1;exitY=1;exitDx=0;exitDy=0;entryX=0;entryY=0;entryDx=0;entryDy=0;" edge="1" parent="WIyWlLk6GJQsqaUBKTNV-1" source="3YOhsPJnXROdofjHF5Tx-2" target="3YOhsPJnXROdofjHF5Tx-3">
          <mxGeometry width="50" height="50" relative="1" as="geometry">
            <mxPoint x="310" y="320" as="sourcePoint" />
            <mxPoint x="360" y="270" as="targetPoint" />
          </mxGeometry>
        </mxCell>
        <mxCell id="WFWG5SUDszc5aF9-9dEm-5" value="read" style="edgeLabel;html=1;align=center;verticalAlign=middle;resizable=0;points=[];fontSize=12;" vertex="1" connectable="0" parent="WFWG5SUDszc5aF9-9dEm-4">
          <mxGeometry x="0.0733" relative="1" as="geometry">
            <mxPoint as="offset" />
          </mxGeometry>
        </mxCell>
        <mxCell id="WFWG5SUDszc5aF9-9dEm-6" value="" style="endArrow=classic;html=1;rounded=0;fontSize=12;startSize=8;endSize=8;curved=1;exitX=1;exitY=0;exitDx=0;exitDy=0;entryX=0;entryY=1;entryDx=0;entryDy=0;" edge="1" parent="WIyWlLk6GJQsqaUBKTNV-1" source="3YOhsPJnXROdofjHF5Tx-4" target="3YOhsPJnXROdofjHF5Tx-3">
          <mxGeometry width="50" height="50" relative="1" as="geometry">
            <mxPoint x="410" y="470" as="sourcePoint" />
            <mxPoint x="460" y="420" as="targetPoint" />
          </mxGeometry>
        </mxCell>
        <mxCell id="WFWG5SUDszc5aF9-9dEm-7" value="has" style="edgeLabel;html=1;align=center;verticalAlign=middle;resizable=0;points=[];fontSize=12;" vertex="1" connectable="0" parent="WFWG5SUDszc5aF9-9dEm-6">
          <mxGeometry x="-0.3784" relative="1" as="geometry">
            <mxPoint as="offset" />
          </mxGeometry>
        </mxCell>
      </root>
    </mxGraphModel>
  </diagram>
</mxfile>
